<svg width="128" height="128" viewBox="0 0 128 128" xmlns="http://www.w3.org/2000/svg">
  <defs>
    <linearGradient id="bookGradient" x1="0%" y1="0%" x2="100%" y2="100%">
      <stop offset="0%" style="stop-color:#2E86C1;stop-opacity:1" />
      <stop offset="100%" style="stop-color:#1F4E79;stop-opacity:1" />
    </linearGradient>
    <linearGradient id="pageGradient" x1="0%" y1="0%" x2="100%" y2="100%">
      <stop offset="0%" style="stop-color:#F8F9FA;stop-opacity:1" />
      <stop offset="100%" style="stop-color:#E9ECEF;stop-opacity:1" />
    </linearGradient>
    <filter id="shadow" x="-20%" y="-20%" width="140%" height="140%">
      <feDropShadow dx="2" dy="4" stdDeviation="3" flood-color="#000000" flood-opacity="0.2"/>
    </filter>
  </defs>
  
  <!-- Arrière-plan circulaire -->
  <circle cx="64" cy="64" r="58" fill="#F7F9FC" stroke="#E1E8ED" stroke-width="2"/>
  
  <!-- Livre principal -->
  <g filter="url(#shadow)">
    <!-- Couverture du livre -->
    <rect x="28" y="35" width="48" height="60" rx="3" ry="3" fill="url(#bookGradient)"/>
    
    <!-- Pages du livre -->
    <rect x="32" y="38" width="40" height="54" rx="2" ry="2" fill="url(#pageGradient)"/>
    
    <!-- Lignes de texte simulées -->
    <rect x="36" y="45" width="28" height="2" rx="1" fill="#6C757D" opacity="0.6"/>
    <rect x="36" y="50" width="32" height="2" rx="1" fill="#6C757D" opacity="0.6"/>
    <rect x="36" y="55" width="24" height="2" rx="1" fill="#6C757D" opacity="0.6"/>
    <rect x="36" y="60" width="30" height="2" rx="1" fill="#6C757D" opacity="0.6"/>
    <rect x="36" y="65" width="26" height="2" rx="1" fill="#6C757D" opacity="0.6"/>
    <rect x="36" y="70" width="32" height="2" rx="1" fill="#6C757D" opacity="0.6"/>
    <rect x="36" y="75" width="22" height="2" rx="1" fill="#6C757D" opacity="0.6"/>
    <rect x="36" y="80" width="28" height="2" rx="1" fill="#6C757D" opacity="0.6"/>
  </g>
  
  <!-- Pages supplémentaires (effet de profondeur) -->
  <rect x="78" y="40" width="18" height="50" rx="2" ry="2" fill="#FFFFFF" stroke="#DEE2E6" stroke-width="1" opacity="0.8"/>
  <rect x="80" y="42" width="14" height="46" rx="1" ry="1" fill="#F8F9FA"/>
  
  <!-- Icône de connexion/réseau (symbolisant le partage de connaissances) -->
  <g transform="translate(85, 25)">
    <!-- Points de connexion -->
    <circle cx="8" cy="8" r="4" fill="#28A745" opacity="0.9"/>
    <circle cx="20" cy="4" r="3" fill="#28A745" opacity="0.7"/>
    <circle cx="16" cy="16" r="3" fill="#28A745" opacity="0.7"/>
    
    <!-- Lignes de connexion -->
    <line x1="8" y1="8" x2="17" y2="6" stroke="#28A745" stroke-width="2" opacity="0.6"/>
    <line x1="12" y1="12" x2="16" y2="13" stroke="#28A745" stroke-width="2" opacity="0.6"/>
  </g>
  
  <!-- Icône de recherche (symbolisant l'accès facile à l'information) -->
  <g transform="translate(20, 75)">
    <circle cx="8" cy="8" r="6" fill="none" stroke="#FFC107" stroke-width="2.5"/>
    <line x1="12.5" y1="12.5" x2="16" y2="16" stroke="#FFC107" stroke-width="2.5" stroke-linecap="round"/>
  </g>
  
  <!-- Marque-page décoratif -->
  <rect x="68" y="35" width="4" height="25" fill="#E74C3C"/>
  <polygon points="68,35 72,35 70,30" fill="#E74C3C"/>
</svg>